<svg xmlns="http://www.w3.org/2000/svg" viewBox="0 0 930.813 549.796">
  <defs>
    <style>
      .cls-1, .cls-29 {
        fill: none;
      }

      .cls-1, .cls-15, .cls-2, .cls-22 {
        stroke: #79bef2;
      }

      .cls-1, .cls-2 {
        stroke-width: 10px;
      }

      .cls-1 {
        opacity: 0.43;
      }

      .cls-15, .cls-2, .cls-22 {
        fill: #fff;
      }

      .cls-3 {
        fill: #707487;
      }

      .cls-4 {
        fill: #e6af78;
      }

      .cls-5 {
        fill: #b4e1fa;
      }

      .cls-6 {
        fill: #d29b6e;
      }

      .cls-7 {
        fill: #f0c087;
      }

      .cls-8 {
        fill: #a0d2f0;
      }

      .cls-9 {
        fill: #5b5d6e;
      }

      .cls-10 {
        fill: #515262;
      }

      .cls-11 {
        fill: #785550;
      }

      .cls-12 {
        fill: #694b4b;
      }

      .cls-13 {
        fill: #5a4146;
      }

      .cls-14 {
        fill: #464655;
      }

      .cls-15 {
        stroke-width: 7px;
      }

      .cls-16 {
        fill: #d7deed;
      }

      .cls-17 {
        fill: #c7cfe2;
      }

      .cls-18 {
        fill: #ed5a24;
      }

      .cls-19 {
        fill: #959cb3;
      }

      .cls-20 {
        fill: #d65120;
      }

      .cls-21 {
        fill: #ff793f;
      }

      .cls-22 {
        stroke-width: 8px;
      }

      .cls-23 {
        fill: #afb9d2;
      }

      .cls-24 {
        fill: #e4eaf6;
      }

      .cls-25 {
        fill: #eff2fa;
      }

      .cls-26 {
        fill: #8f96ac;
      }

      .cls-27 {
        fill: #2a8dd8;
      }

      .cls-28 {
        stroke: none;
      }
    </style>
  </defs>
  <g id="Group_641" data-name="Group 641" transform="translate(-1052.783 -2594.432)">
    <path id="Path_189" data-name="Path 189" class="cls-1" d="M6231.562,3351.345s96.873-546.625,205.507-412.289S6356.61,3372.8,6579.787,3158.8s320.593-275.652,446.339-244.194" transform="translate(-5043.744 -227.551)"/>
    <g id="Group_386" data-name="Group 386" transform="translate(1052.783 2870.159)">
      <g id="Ellipse_57" data-name="Ellipse 57" class="cls-2" transform="translate(0)">
        <ellipse class="cls-28" cx="137.034" cy="137.034" rx="137.034" ry="137.034"/>
        <ellipse class="cls-29" cx="137.034" cy="137.034" rx="132.034" ry="132.034"/>
      </g>
      <g id="customer-service" transform="translate(76.502 70.227)">
        <path id="Path_93" data-name="Path 93" class="cls-3" d="M119.375,201.522l-3.334-1.667a2.3,2.3,0,0,1-1.273-2.06v-8.67a2.3,2.3,0,0,1,1.273-2.06l3.334-1.667Z" transform="translate(-91.732 -137.014)"/>
        <path id="Path_94" data-name="Path 94" class="cls-4" d="M218.023,316.275V300.15H176.558v16.125L197.29,334.7Z" transform="translate(-137.396 -221.82)"/>
        <path id="Path_95" data-name="Path 95" class="cls-5" d="M139.179,368.64l-28.505-6.707a4.573,4.573,0,0,1-1.2-.482L86.389,374.919,64.2,360.8a4.591,4.591,0,0,1-2.1,1.133L33.6,368.641a9.214,9.214,0,0,0-7.1,8.97v18.042a4.607,4.607,0,0,0,4.607,4.607H141.675a4.607,4.607,0,0,0,4.607-4.607V377.61A9.213,9.213,0,0,0,139.179,368.64Z" transform="translate(-26.495 -266.643)"/>
        <path id="Path_96" data-name="Path 96" class="cls-6" d="M176.558,300.149v17.013c26.117,9.41,41.465-14.141,41.465-14.141v-2.873H176.558Z" transform="translate(-137.396 -221.82)"/>
        <path id="Path_97" data-name="Path 97" class="cls-7" d="M141.249,97.127l2.007,44.163a13.821,13.821,0,0,0,5.514,10.43l9.525,7.144a13.823,13.823,0,0,0,8.293,2.764H175.8a13.822,13.822,0,0,0,8.293-2.764l9.525-7.144a13.821,13.821,0,0,0,5.514-10.43l2.007-44.163Z" transform="translate(-111.302 -71.78)"/>
        <path id="Path_98" data-name="Path 98" class="cls-4" d="M164.285,106.341c9.215,0,23.036-2.3,26.314-9.215h-49.35l2.007,44.163a13.822,13.822,0,0,0,5.515,10.43l9.525,7.144a13.823,13.823,0,0,0,8.293,2.764H171.2c-4.607,0-13.822-9.215-13.822-20.732V113.251C157.374,110.948,159.678,106.341,164.285,106.341Z" transform="translate(-111.302 -71.779)"/>
        <g id="Group_366" data-name="Group 366" transform="translate(0.001 105.257)">
          <path id="Path_99" data-name="Path 99" class="cls-8" d="M43.409,416.741,28.482,403.332a9.2,9.2,0,0,0-1.984,5.711v18.042a4.607,4.607,0,0,0,4.607,4.607H47.23V425.31A11.519,11.519,0,0,0,43.409,416.741Z" transform="translate(-26.498 -403.332)"/>
          <path id="Path_100" data-name="Path 100" class="cls-8" d="M409.884,416.741l14.927-13.409a9.2,9.2,0,0,1,1.984,5.711v18.042a4.607,4.607,0,0,1-4.607,4.607H406.063V425.31A11.518,11.518,0,0,1,409.884,416.741Z" transform="translate(-307.008 -403.332)"/>
        </g>
        <path id="Path_101" data-name="Path 101" class="cls-9" d="M245.452,453.289H233.934l1.44-20.733h8.639Z" transform="translate(-179.799 -319.673)"/>
        <path id="Path_102" data-name="Path 102" class="cls-10" d="M245.452,414.9H233.934v4.335a2.575,2.575,0,0,0,2.575,2.575h6.367a2.575,2.575,0,0,0,2.575-2.575V414.9Z" transform="translate(-179.799 -306.626)"/>
        <g id="Group_367" data-name="Group 367" transform="translate(32.251 88.734)">
          <path id="Path_103" data-name="Path 103" class="cls-8" d="M156.665,340.612l21.056,18.95a79.458,79.458,0,0,0-13.174,8.977,2.956,2.956,0,0,1-4.577-1.035l-9.893-21.763,3.13-4.694A2.3,2.3,0,0,1,156.665,340.612Z" transform="translate(-150.078 -340.02)"/>
          <path id="Path_104" data-name="Path 104" class="cls-8" d="M277.058,340.612,256,359.562a79.46,79.46,0,0,1,13.174,8.977,2.956,2.956,0,0,0,4.577-1.035l9.892-21.763-3.13-4.694A2.3,2.3,0,0,0,277.058,340.612Z" transform="translate(-228.359 -340.02)"/>
        </g>
        <path id="Path_105" data-name="Path 105" class="cls-11" d="M309.516,34.594l2.159,15.261c9.858,1.972,11.279,17.442,11.483,21.861a4.543,4.543,0,0,0,.728,2.251l3.761,5.835s-1.287-9.646,4.607-16.125C332.256,63.677,334.28,25.38,309.516,34.594Z" transform="translate(-235.656 -24.509)"/>
        <path id="Path_106" data-name="Path 106" class="cls-12" d="M123.282,5.959l3.407,2.328c-15.405,11.374-12.526,30.883-12.526,30.883,4.607,4.607,4.607,16.125,4.607,16.125l4.607-4.607s-1.778-13.309,6.911-18.429c8.063-4.751,15.117-2.3,22.316-2.3,19.293,0,24.692-7.271,23.756-16.125C175.876,9.248,168.871-.3,151.021.008,143.817.13,130.289,2.312,123.282,5.959Z" transform="translate(-91.127 -0.001)"/>
        <path id="Path_107" data-name="Path 107" class="cls-13" d="M121.938,51.4s-2.448-9.646,4.751-19.653c-15.405,11.374-12.526,30.883-12.526,30.883,4.607,4.607,4.607,16.125,4.607,16.125l4.607-4.607s-1.778-13.309,6.911-18.429c8.063-4.751,15.117-2.3,22.316-2.3a56.6,56.6,0,0,0,8.307-.57C146.054,53.347,137.3,42.093,121.938,51.4Z" transform="translate(-91.127 -23.465)"/>
        <path id="Path_108" data-name="Path 108" class="cls-9" d="M129.354,197.3H125.9a2.3,2.3,0,0,1-2.3-2.3V178.874a2.3,2.3,0,0,1,2.3-2.3h3.455a1.152,1.152,0,0,1,1.152,1.152V196.15A1.152,1.152,0,0,1,129.354,197.3Z" transform="translate(-98.255 -130.491)"/>
        <path id="Path_109" data-name="Path 109" class="cls-14" d="M291.311,262.736v-3.456c15.591,0,19-8.73,19-12.094h3.455C313.771,251.512,309.736,262.736,291.311,262.736Z" transform="translate(-222.202 -182.679)"/>
        <path id="Path_110" data-name="Path 110" class="cls-9" d="M278.264,295.93h-2.3a2.3,2.3,0,0,1-2.3-2.3h0a2.3,2.3,0,0,1,2.3-2.3h2.3a2.3,2.3,0,0,1,2.3,2.3h0A2.3,2.3,0,0,1,278.264,295.93Z" transform="translate(-209.155 -215.297)"/>
        <path id="Path_111" data-name="Path 111" class="cls-3" d="M379.582,201.522l3.334-1.667a2.3,2.3,0,0,0,1.273-2.06v-8.67a2.3,2.3,0,0,0-1.273-2.06l-3.334-1.667Z" transform="translate(-287.437 -137.014)"/>
        <path id="Path_112" data-name="Path 112" class="cls-9" d="M363.079,197.3h3.455a2.3,2.3,0,0,0,2.3-2.3V178.874a2.3,2.3,0,0,0-2.3-2.3h-3.455a1.152,1.152,0,0,0-1.152,1.152V196.15A1.152,1.152,0,0,0,363.079,197.3Z" transform="translate(-274.39 -130.491)"/>
        <path id="Path_113" data-name="Path 113" class="cls-8" d="M318.567,494.346H302.441a2.3,2.3,0,0,0-2.3,2.3v2.3H320.87v-2.3A2.3,2.3,0,0,0,318.567,494.346Z" transform="translate(-228.726 -365.337)"/>
      </g>
    </g>
    <g id="Group_387" data-name="Group 387" transform="translate(1308.901 2632.832)">
      <g id="Ellipse_58" data-name="Ellipse 58" class="cls-15">
        <ellipse class="cls-28" cx="88.161" cy="88.161" rx="88.161" ry="88.161"/>
        <ellipse class="cls-29" cx="88.161" cy="88.161" rx="84.661" ry="84.661"/>
      </g>
      <g id="protest" transform="translate(53.056 53.056)">
        <path id="Path_114" data-name="Path 114" class="cls-16" d="M471.968,161.353l-4.106.821V150.069l4.106.821a2.421,2.421,0,0,1,1.946,2.374v5.715A2.421,2.421,0,0,1,471.968,161.353Z" transform="translate(-403.704 -129.49)"/>
        <path id="Path_115" data-name="Path 115" class="cls-17" d="M471.968,190.935l-4.106.821v3.632l4.106-.821a2.421,2.421,0,0,0,1.946-2.374v-3.632A2.421,2.421,0,0,1,471.968,190.935Z" transform="translate(-403.704 -162.704)"/>
        <path id="Path_116" data-name="Path 116" class="cls-18" d="M3.632,149.361H2.421A2.421,2.421,0,0,1,0,146.94V134.835a2.421,2.421,0,0,1,2.421-2.421H3.632v16.947Z" transform="translate(0 -114.256)"/>
        <path id="Path_117" data-name="Path 117" class="cls-16" d="M229.517,20.933V47.565c8.474,0,21.789,3.632,31.474,12.105V8.828C251.306,17.3,237.991,20.933,229.517,20.933Z" transform="translate(-198.043 -7.617)"/>
        <g id="Group_368" data-name="Group 368" transform="translate(62.947)">
          <path id="Path_118" data-name="Path 118" class="cls-19" d="M461.455,53.263h-1.211a1.211,1.211,0,0,1-1.211-1.211V1.211A1.211,1.211,0,0,1,460.245,0h1.211a1.211,1.211,0,0,1,1.211,1.211V52.053A1.211,1.211,0,0,1,461.455,53.263Z" transform="translate(-459.034)"/>
        </g>
        <path id="Path_119" data-name="Path 119" class="cls-18" d="M116.98,319.152h0a1.211,1.211,0,0,1-1.187-.973l-5.374-26.869H97.1l5.469,27.344a3.632,3.632,0,0,0,3.561,2.919H116.98a1.21,1.21,0,1,0,0-2.421Z" transform="translate(-83.787 -251.363)"/>
        <path id="Path_120" data-name="Path 120" class="cls-20" d="M74.755,291.31v1.4a1.21,1.21,0,0,1-1.012,1.194l-19.368,3.228a1.211,1.211,0,0,1-1.41-1.194V291.31Z" transform="translate(-45.702 -251.363)"/>
        <path id="Path_121" data-name="Path 121" class="cls-21" d="M46.708,123.735H22.5a4.842,4.842,0,0,1-4.842-4.842V101.946A4.842,4.842,0,0,1,22.5,97.1H46.709v26.631Z" transform="translate(-15.235 -83.788)"/>
        <rect id="Rectangle_307" data-name="Rectangle 307" class="cls-19" width="2.421" height="26.632" transform="translate(29.053 13.316)"/>
        <path id="Path_122" data-name="Path 122" class="cls-18" d="M17.655,229.517H44.287v8.474H22.5a4.842,4.842,0,0,1-4.842-4.842v-3.632Z" transform="translate(-15.234 -198.043)"/>
        <rect id="Rectangle_308" data-name="Rectangle 308" class="cls-3" width="2.421" height="8.474" transform="translate(29.053 31.474)"/>
        <path id="Path_123" data-name="Path 123" class="cls-17" d="M229.517,237.991c8.474,0,21.789,3.632,31.474,12.105V235.57c-9.684-4.035-23-6.053-31.474-6.053Z" transform="translate(-198.043 -198.043)"/>
        <path id="Path_124" data-name="Path 124" class="cls-3" d="M461.455,274.866h-1.211a1.211,1.211,0,0,1-1.211-1.211v14.526a1.211,1.211,0,0,0,1.211,1.211h1.211a1.211,1.211,0,0,0,1.211-1.211V273.655A1.211,1.211,0,0,1,461.455,274.866Z" transform="translate(-396.087 -236.129)"/>
      </g>
    </g>
    <g id="Group_388" data-name="Group 388" transform="translate(1476.853 2847.783)">
      <g id="Ellipse_59" data-name="Ellipse 59" class="cls-22" transform="translate(0)">
        <ellipse class="cls-28" cx="87.476" cy="87.476" rx="87.476" ry="87.476"/>
        <ellipse class="cls-29" cx="87.476" cy="87.476" rx="83.476" ry="83.476"/>
      </g>
      <g id="chatting" transform="translate(47.114 43.662)">
        <path id="Path_125" data-name="Path 125" class="cls-17" d="M217.906,35.31h36.26a6.061,6.061,0,0,1,6.043,6.043V62.505a6.061,6.061,0,0,1-6.043,6.043H234.525v5.73a.755.755,0,0,1-1.289.534l-6.265-6.264h-9.065a6.061,6.061,0,0,1-6.043-6.043V41.353A6.061,6.061,0,0,1,217.906,35.31Z" transform="translate(-178.624 -29.267)"/>
        <path id="Path_126" data-name="Path 126" class="cls-23" d="M252.6,47.4H229.993V44.375h12.035a1.545,1.545,0,0,0,1.559-1.41,1.511,1.511,0,0,0-1.508-1.612H229.993V35.31h-3.022V56.462a6.061,6.061,0,0,1-6.043,6.043h-9.065a5.959,5.959,0,0,0,.845,3.022h8.221a9.076,9.076,0,0,0,9.065-9.065h6a1.541,1.541,0,0,0,1.542-1.287,1.511,1.511,0,0,0-1.495-1.735h-6.043V50.418h22.663a1.511,1.511,0,0,0,1.508-1.612A1.546,1.546,0,0,0,252.6,47.4Z" transform="translate(-178.624 -29.267)"/>
        <g id="Group_369" data-name="Group 369" transform="translate(61.944 12.087)">
          <path id="Path_127" data-name="Path 127" class="cls-19" d="M420.939,73.642h-4.533a1.511,1.511,0,0,1,0-3.022h4.533a1.511,1.511,0,0,1,0,3.022Z" transform="translate(-408.853 -70.62)"/>
          <path id="Path_128" data-name="Path 128" class="cls-19" d="M391.673,144.263H381.1a1.511,1.511,0,1,1,0-3.022h10.576a1.511,1.511,0,0,1,0,3.022Z" transform="translate(-379.586 -129.154)"/>
        </g>
        <g id="Group_370" data-name="Group 370" transform="translate(51.368 30.217)">
          <path id="Path_129" data-name="Path 129" class="cls-23" d="M340.456,179.573H319.3a1.511,1.511,0,1,1,0-3.022h21.152a1.511,1.511,0,0,1,0,3.022Z" transform="translate(-317.793 -176.551)"/>
        </g>
        <path id="Path_130" data-name="Path 130" class="cls-24" d="M59.96,0H23.7a6.061,6.061,0,0,0-6.043,6.043V27.2A6.061,6.061,0,0,0,23.7,33.238H43.34v5.73a.755.755,0,0,0,1.289.534l6.265-6.264H59.96A6.061,6.061,0,0,0,66,27.2V6.043A6.061,6.061,0,0,0,59.96,0Z" transform="translate(-17.656)"/>
        <path id="Path_131" data-name="Path 131" class="cls-23" d="M59.009,38.332H54.477a1.511,1.511,0,1,1,0-3.022h4.533a1.511,1.511,0,1,1,0,3.022Z" transform="translate(-46.923 -29.267)"/>
        <g id="Group_371" data-name="Group 371" transform="translate(6.043 6.043)">
          <path id="Path_132" data-name="Path 132" class="cls-17" d="M138.933,38.332H116.27a1.511,1.511,0,0,1,0-3.022h22.663a1.511,1.511,0,0,1,0,3.022Z" transform="translate(-104.183 -35.31)"/>
          <path id="Path_133" data-name="Path 133" class="cls-17" d="M87.715,73.642H54.477a1.511,1.511,0,1,1,0-3.022H87.715a1.511,1.511,0,1,1,0,3.022Z" transform="translate(-52.966 -64.577)"/>
        </g>
        <path id="Path_134" data-name="Path 134" class="cls-23" d="M226.734,108.952H222.2a1.511,1.511,0,1,1,0-3.022h4.533a1.511,1.511,0,0,1,0,3.022Z" transform="translate(-185.941 -87.8)"/>
        <g id="Group_372" data-name="Group 372" transform="translate(6.043 18.13)">
          <path id="Path_135" data-name="Path 135" class="cls-17" d="M77.139,108.952H54.477a1.511,1.511,0,0,1,0-3.022H77.14a1.511,1.511,0,1,1,0,3.022Z" transform="translate(-52.966 -105.93)"/>
          <path id="Path_136" data-name="Path 136" class="cls-17" d="M87.715,144.263H54.477a1.511,1.511,0,0,1,0-3.022H87.715a1.511,1.511,0,0,1,0,3.022Z" transform="translate(-52.966 -135.197)"/>
        </g>
        <path id="Path_137" data-name="Path 137" class="cls-4" d="M108.3,419.1v-4.881H95.746V419.1l6.276,5.578Z" transform="translate(-82.381 -343.325)"/>
        <path id="Path_138" data-name="Path 138" class="cls-25" d="M60.593,444.584l-8.629-2.03a1.378,1.378,0,0,1-.362-.146l-6.989,4.077L37.9,442.21a1.387,1.387,0,0,1-.635.343l-8.629,2.03a2.79,2.79,0,0,0-2.151,2.715v5.461a1.4,1.4,0,0,0,1.395,1.395H61.349a1.4,1.4,0,0,0,1.395-1.395V447.3A2.789,2.789,0,0,0,60.593,444.584Z" transform="translate(-24.972 -366.526)"/>
        <path id="Path_139" data-name="Path 139" class="cls-6" d="M95.746,414.218v5.15c7.906,2.848,12.552-4.28,12.552-4.28v-.87Z" transform="translate(-82.381 -343.325)"/>
        <path id="Path_140" data-name="Path 140" class="cls-7" d="M79.449,320.508l.608,13.368a4.184,4.184,0,0,0,1.669,3.157l2.883,2.162a4.183,4.183,0,0,0,2.51.837h2.789a4.184,4.184,0,0,0,2.51-.837l2.883-2.162a4.184,4.184,0,0,0,1.669-3.157l.608-13.368H79.449Z" transform="translate(-68.873 -265.653)"/>
        <path id="Path_141" data-name="Path 141" class="cls-4" d="M86.422,323.3c2.789,0,6.973-.7,7.965-2.789H79.449l.608,13.368a4.184,4.184,0,0,0,1.669,3.157l2.883,2.162a4.183,4.183,0,0,0,2.51.837h1.395c-1.395,0-4.184-2.789-4.184-6.276v-8.368A2.226,2.226,0,0,1,86.422,323.3Z" transform="translate(-68.873 -265.655)"/>
        <g id="Group_373" data-name="Group 373" transform="translate(1.511 79.044)">
          <path id="Path_142" data-name="Path 142" class="cls-24" d="M202.834,465.9l4.519-4.059a2.785,2.785,0,0,1,.6,1.729v5.461a1.4,1.4,0,0,1-1.395,1.395h-4.881v-1.932A3.486,3.486,0,0,1,202.834,465.9Z" transform="translate(-171.692 -461.842)"/>
          <path id="Path_143" data-name="Path 143" class="cls-24" d="M31.6,465.9l-4.519-4.059a2.785,2.785,0,0,0-.6,1.729v5.461a1.4,1.4,0,0,0,1.395,1.395h4.881v-1.932A3.485,3.485,0,0,0,31.6,465.9Z" transform="translate(-26.482 -461.842)"/>
        </g>
        <path id="Path_144" data-name="Path 144" class="cls-9" d="M125.715,481.607h-3.487l.436-6.276h2.615Z" transform="translate(-104.33 -393.978)"/>
        <path id="Path_145" data-name="Path 145" class="cls-10" d="M125.715,467.182h-3.487v.4a1.689,1.689,0,0,0,1.689,1.689h.108a1.689,1.689,0,0,0,1.689-1.689v-.4Z" transform="translate(-104.33 -387.224)"/>
        <g id="Group_374" data-name="Group 374" transform="translate(11.273 74.043)">
          <path id="Path_146" data-name="Path 146" class="cls-24" d="M85.517,432.8l6.374,5.736a24.055,24.055,0,0,0-3.988,2.717.9.9,0,0,1-1.385-.313l-2.994-6.588.947-1.421A.7.7,0,0,1,85.517,432.8Z" transform="translate(-83.523 -432.62)"/>
          <path id="Path_147" data-name="Path 147" class="cls-24" d="M138.789,432.8l-6.374,5.736a24.056,24.056,0,0,1,3.988,2.717.9.9,0,0,0,1.385-.313l2.994-6.588-.947-1.421A.7.7,0,0,0,138.789,432.8Z" transform="translate(-124.047 -432.62)"/>
        </g>
        <path id="Path_148" data-name="Path 148" class="cls-11" d="M157.115,291.419l.654,4.62c2.984.6,3.414,5.28,3.476,6.618a1.376,1.376,0,0,0,.22.681L162.6,305.1A6.679,6.679,0,0,1,164,300.223S164.611,288.63,157.115,291.419Z" transform="translate(-133.247 -241.184)"/>
        <path id="Path_149" data-name="Path 149" class="cls-7" d="M179.486,363.045l-.787,3.15a.839.839,0,0,1-.814.635h0a.838.838,0,0,1-.832-.734l-.4-3.222a1.443,1.443,0,0,1,1.432-1.622h0A1.444,1.444,0,0,1,179.486,363.045Z" transform="translate(-149.429 -299.423)"/>
        <path id="Path_150" data-name="Path 150" class="cls-12" d="M69.674,277.483l1.032.7c-4.663,3.443-3.792,9.348-3.792,9.348,1.395,1.395,1.395,4.881,1.395,4.881l1.395-1.395s-.538-4.029,2.092-5.578c2.441-1.438,4.576-.7,6.755-.7,5.84,0,7.474-2.2,7.191-4.881-.147-1.387-2.267-4.276-7.67-4.184A23.471,23.471,0,0,0,69.674,277.483Z" transform="translate(-58.43 -228.497)"/>
        <path id="Path_151" data-name="Path 151" class="cls-13" d="M69.267,296.282a7.66,7.66,0,0,1,1.438-5.949c-4.663,3.443-3.792,9.348-3.792,9.348,1.395,1.395,1.395,4.881,1.395,4.881l1.395-1.395s-.538-4.029,2.092-5.578c2.441-1.438,4.576-.7,6.755-.7a17.125,17.125,0,0,0,2.515-.173C76.567,296.871,73.916,293.464,69.267,296.282Z" transform="translate(-58.43 -240.643)"/>
        <path id="Path_152" data-name="Path 152" class="cls-4" d="M71.344,363.045l.787,3.15a.839.839,0,0,0,.813.635h0a.838.838,0,0,0,.832-.734l.4-3.222a1.443,1.443,0,0,0-1.432-1.622h0A1.444,1.444,0,0,0,71.344,363.045Z" transform="translate(-62.119 -299.423)"/>
        <path id="Path_153" data-name="Path 153" class="cls-24" d="M157.666,503.851H154.18a1.4,1.4,0,0,0-1.395,1.395h6.276A1.4,1.4,0,0,0,157.666,503.851Z" transform="translate(-129.658 -417.617)"/>
        <path id="Path_154" data-name="Path 154" class="cls-12" d="M301.279,278.328c-14.067,0-12.507,17.106-12.443,29.5a1.324,1.324,0,0,0,.649,1.132,23.743,23.743,0,0,0,23.589,0,1.324,1.324,0,0,0,.649-1.132C313.786,295.435,315.346,278.328,301.279,278.328Z" transform="translate(-242.356 -230.692)"/>
        <path id="Path_155" data-name="Path 155" class="cls-13" d="M300.377,278.535c-13.083.733-11.6,17.347-11.537,29.468a1.323,1.323,0,0,0,.649,1.132,23.315,23.315,0,0,0,11.794,3.137l3.555-24.884" transform="translate(-242.36 -230.864)"/>
        <path id="Path_156" data-name="Path 156" class="cls-12" d="M320.506,278.328c-8,0-8.554,9.665-8.554,9.665,4.61-.778,7.443,1.166,12.109-.778L320.506,312.1a23.315,23.315,0,0,0,11.794-3.137,1.324,1.324,0,0,0,.649-1.132C333.013,295.435,334.573,278.328,320.506,278.328Z" transform="translate(-261.583 -230.692)"/>
        <path id="Path_157" data-name="Path 157" class="cls-11" d="M397.954,312.508c.055-10.652,1.2-24.772-7.4-28.538a7.9,7.9,0,0,0,.284,4.367c1.778,3.555,3.555,3.555,5.332,6.221,1.778,9.776-3.4,20.152-5.115,21.565h0a22.357,22.357,0,0,0,6.244-2.483A1.324,1.324,0,0,0,397.954,312.508Z" transform="translate(-326.588 -235.368)"/>
        <path id="Path_158" data-name="Path 158" class="cls-4" d="M302.231,432.116l-7.93-3.3a1.777,1.777,0,0,1-1.094-1.641v-2.148H284.32v2.148a1.777,1.777,0,0,1-1.094,1.641l-7.93,3.3a2.666,2.666,0,0,0-1.641,2.461v3.555a1.778,1.778,0,0,0,1.778,1.778h26.662a1.778,1.778,0,0,0,1.778-1.778v-3.555A2.666,2.666,0,0,0,302.231,432.116Z" transform="translate(-229.841 -352.28)"/>
        <path id="Path_159" data-name="Path 159" class="cls-5" d="M302.232,450.992l-7.668-3.195-5.8,2.5-5.8-2.5-7.668,3.195a2.666,2.666,0,0,0-1.641,2.461v3.555a1.777,1.777,0,0,0,1.778,1.778H302.1a1.778,1.778,0,0,0,1.778-1.778v-3.555A2.667,2.667,0,0,0,302.232,450.992Z" transform="translate(-229.842 -371.157)"/>
        <path id="Path_160" data-name="Path 160" class="cls-6" d="M333.561,425.022h-8.887v2.148a1.777,1.777,0,0,1-1.094,1.641l-1.238.516C331.819,431.743,333.561,425.022,333.561,425.022Z" transform="translate(-270.194 -352.279)"/>
        <g id="Group_375" data-name="Group 375" transform="translate(43.814 75.186)">
          <path id="Path_161" data-name="Path 161" class="cls-8" d="M277.988,472.81l-3.567-2.838a2.66,2.66,0,0,0-.764,1.861v3.555a1.778,1.778,0,0,0,1.778,1.778h3.555v-2.273A2.667,2.667,0,0,0,277.988,472.81Z" transform="translate(-273.656 -464.724)"/>
          <path id="Path_162" data-name="Path 162" class="cls-8" d="M424.384,475.441v-3.555a2.661,2.661,0,0,0-.753-1.849l-3.579,2.826a2.666,2.666,0,0,0-1,2.082v2.274h3.555A1.777,1.777,0,0,0,424.384,475.441Z" transform="translate(-394.168 -464.777)"/>
          <path id="Path_163" data-name="Path 163" class="cls-8" d="M357.761,469.141h-.267a.755.755,0,0,1-.756-.755v-5.95h1.778v5.95A.756.756,0,0,1,357.761,469.141Z" transform="translate(-342.519 -458.476)"/>
          <path id="Path_164" data-name="Path 164" class="cls-8" d="M327.5,443.259l-5.087-3.815a.711.711,0,0,0-1.018.174l-1.005,1.508,3.119,4.366a.711.711,0,0,0,1.023.142Z" transform="translate(-312.392 -439.301)"/>
          <path id="Path_165" data-name="Path 165" class="cls-8" d="M361.932,443.259l5.087-3.815a.711.711,0,0,1,1.018.174l1.005,1.508-3.118,4.366a.711.711,0,0,1-1.023.142Z" transform="translate(-346.824 -439.301)"/>
        </g>
        <path id="Path_166" data-name="Path 166" class="cls-7" d="M324.142,325.063c-4.444,4.444-13.164.889-13.164,8l.552,5.237a3.555,3.555,0,0,0,1.814,2.786l5.06,2.811a2.666,2.666,0,0,0,2.59,0l5.06-2.811a3.555,3.555,0,0,0,1.814-2.786l.637-6.22a9.812,9.812,0,0,0,.04-1.331C328.212,328.486,325.031,326.84,324.142,325.063Z" transform="translate(-260.776 -269.428)"/>
        <path id="Path_167" data-name="Path 167" class="cls-4" d="M310.978,333.061l.552,5.237a3.555,3.555,0,0,0,1.814,2.786l5.06,2.811a2.655,2.655,0,0,0,1.81.27h0s-2.551-.773-4.07-4.883c-.465-1.259-1.111-7.925-.555-8.739,1.1-1.61,7.221-1.778,9.03-4.765q-.134-.166-.247-.333l-.02-.027a3.436,3.436,0,0,1-.209-.356C319.7,329.506,310.978,325.951,310.978,333.061Z" transform="translate(-260.776 -269.428)"/>
        <path id="Path_168" data-name="Path 168" class="cls-8" d="M381.331,501.614H379.02a1.511,1.511,0,0,0-1.511,1.511v.267h5.332v-.267A1.511,1.511,0,0,0,381.331,501.614Z" transform="translate(-315.92 -415.763)"/>
      </g>
    </g>
    <g id="Group_389" data-name="Group 389" transform="translate(1641.898 2594.432)">
      <g id="Ellipse_60" data-name="Ellipse 60" class="cls-22">
        <ellipse class="cls-28" cx="126.676" cy="126.676" rx="126.676" ry="126.676"/>
        <ellipse class="cls-29" cx="126.676" cy="126.676" rx="122.676" ry="122.676"/>
      </g>
      <g id="line-graph" transform="translate(64.658 64.657)">
        <g id="Group_376" data-name="Group 376" transform="translate(17.109 8.554)">
          <rect id="Rectangle_309" data-name="Rectangle 309" class="cls-25" width="4.277" height="49.187" transform="translate(12.831 59.88)"/>
          <rect id="Rectangle_310" data-name="Rectangle 310" class="cls-25" width="4.277" height="25.663" transform="translate(0 83.404)"/>
          <rect id="Rectangle_311" data-name="Rectangle 311" class="cls-25" width="4.277" height="66.295" transform="translate(25.663 42.771)"/>
          <rect id="Rectangle_312" data-name="Rectangle 312" class="cls-25" width="4.277" height="19.247" transform="translate(38.494 89.819)"/>
          <rect id="Rectangle_313" data-name="Rectangle 313" class="cls-25" width="4.277" height="27.801" transform="translate(51.325 81.265)"/>
          <rect id="Rectangle_314" data-name="Rectangle 314" class="cls-25" width="4.277" height="40.633" transform="translate(64.157 68.434)"/>
          <rect id="Rectangle_315" data-name="Rectangle 315" class="cls-25" width="4.277" height="109.066" transform="translate(76.988)"/>
          <rect id="Rectangle_316" data-name="Rectangle 316" class="cls-25" width="4.277" height="14.97" transform="translate(89.819 94.097)"/>
        </g>
        <path id="Path_169" data-name="Path 169" class="cls-23" d="M122.443,258.626a2.132,2.132,0,0,1-.677-.111L83.272,245.684a2.139,2.139,0,0,1-1.1-.843L58.184,208.863l-11.019,14.69a2.139,2.139,0,0,1-2.788.564l-25.662-14.97a2.139,2.139,0,0,1,2.155-3.694l24.017,14.01,11.689-15.585a2.047,2.047,0,0,1,1.77-.854,2.138,2.138,0,0,1,1.72.951l25.255,37.883,37.8,12.6a2.139,2.139,0,0,1-.677,4.168Z" transform="translate(-13.377 -153.836)"/>
        <path id="Path_170" data-name="Path 170" class="cls-26" d="M19.789,139.832a2.138,2.138,0,0,1-1.911-3.095L30.71,111.074a2.143,2.143,0,0,1,2.265-1.153l37.591,6.266,24.26-18.2,12.681-69.746a2.138,2.138,0,1,1,4.208.765L98.884,99.582a2.135,2.135,0,0,1-.821,1.328L72.4,120.157a2.121,2.121,0,0,1-1.635.4L33.829,114.4,21.7,138.65A2.138,2.138,0,0,1,19.789,139.832Z" transform="translate(-13.376 -20.073)"/>
        <g id="Group_377" data-name="Group 377" transform="translate(0 12.831)">
          <path id="Path_171" data-name="Path 171" class="cls-16" d="M6.416,428H2.139A2.139,2.139,0,0,1,0,425.862H0a2.139,2.139,0,0,1,2.139-2.139H6.416V428Z" transform="translate(0 -333.904)"/>
          <path id="Path_172" data-name="Path 172" class="cls-16" d="M6.416,375.035H2.139A2.139,2.139,0,0,1,0,372.9H0a2.139,2.139,0,0,1,2.139-2.139H6.416v4.277Z" transform="translate(0 -293.77)"/>
          <path id="Path_173" data-name="Path 173" class="cls-16" d="M6.416,322.069H2.139A2.139,2.139,0,0,1,0,319.931H0a2.139,2.139,0,0,1,2.139-2.139H6.416v4.277Z" transform="translate(0 -253.635)"/>
          <path id="Path_174" data-name="Path 174" class="cls-16" d="M6.416,269.1H2.139A2.139,2.139,0,0,1,0,266.966H0a2.139,2.139,0,0,1,2.139-2.139H6.416V269.1Z" transform="translate(0 -213.502)"/>
          <path id="Path_175" data-name="Path 175" class="cls-16" d="M6.416,216.138H2.139A2.139,2.139,0,0,1,0,214H0a2.139,2.139,0,0,1,2.139-2.139H6.416v4.277Z" transform="translate(0 -173.367)"/>
          <path id="Path_176" data-name="Path 176" class="cls-16" d="M6.416,163.173H2.139A2.139,2.139,0,0,1,0,161.035H0A2.139,2.139,0,0,1,2.139,158.9H6.416v4.277Z" transform="translate(0 -133.233)"/>
          <path id="Path_177" data-name="Path 177" class="cls-16" d="M6.416,110.207H2.139A2.139,2.139,0,0,1,0,108.069H0a2.139,2.139,0,0,1,2.139-2.139H6.416v4.277Z" transform="translate(0 -93.099)"/>
          <path id="Path_178" data-name="Path 178" class="cls-16" d="M6.416,57.242H2.139A2.139,2.139,0,0,1,0,55.1H0a2.139,2.139,0,0,1,2.139-2.139H6.416v4.277Z" transform="translate(0 -52.965)"/>
          <path id="Path_179" data-name="Path 179" class="cls-16" d="M445.655,485.517v4.277a2.139,2.139,0,0,1-2.139,2.139h0a2.139,2.139,0,0,1-2.139-2.139v-4.277Z" transform="translate(-334.45 -380.728)"/>
          <path id="Path_180" data-name="Path 180" class="cls-16" d="M392.69,485.517v4.277a2.139,2.139,0,0,1-2.139,2.139h0a2.139,2.139,0,0,1-2.139-2.139v-4.277Z" transform="translate(-294.317 -380.728)"/>
          <path id="Path_181" data-name="Path 181" class="cls-16" d="M339.724,485.517v4.277a2.139,2.139,0,0,1-2.139,2.139h0a2.139,2.139,0,0,1-2.139-2.139v-4.277Z" transform="translate(-254.182 -380.728)"/>
          <path id="Path_182" data-name="Path 182" class="cls-16" d="M286.759,485.517v4.277a2.139,2.139,0,0,1-2.139,2.139h0a2.139,2.139,0,0,1-2.139-2.139v-4.277Z" transform="translate(-214.048 -380.728)"/>
          <path id="Path_183" data-name="Path 183" class="cls-16" d="M233.793,485.517v4.277a2.139,2.139,0,0,1-2.139,2.139h0a2.139,2.139,0,0,1-2.139-2.139v-4.277Z" transform="translate(-173.914 -380.728)"/>
          <path id="Path_184" data-name="Path 184" class="cls-16" d="M180.828,485.517v4.277a2.139,2.139,0,0,1-2.139,2.139h0a2.139,2.139,0,0,1-2.139-2.139v-4.277Z" transform="translate(-133.78 -380.728)"/>
          <path id="Path_185" data-name="Path 185" class="cls-16" d="M127.862,485.517v4.277a2.139,2.139,0,0,1-2.139,2.139h0a2.139,2.139,0,0,1-2.139-2.139v-4.277Z" transform="translate(-93.645 -380.728)"/>
          <path id="Path_186" data-name="Path 186" class="cls-16" d="M74.9,485.517v4.277a2.139,2.139,0,0,1-2.139,2.139h0a2.139,2.139,0,0,1-2.139-2.139v-4.277Z" transform="translate(-53.512 -380.728)"/>
        </g>
        <g id="Group_378" data-name="Group 378">
          <path id="Path_187" data-name="Path 187" class="cls-17" d="M19.794,124.036h0a2.139,2.139,0,0,1-2.139-2.139V2.139A2.139,2.139,0,0,1,19.794,0h0a2.139,2.139,0,0,1,2.139,2.139V121.9A2.139,2.139,0,0,1,19.794,124.036Z" transform="translate(-13.378)"/>
          <path id="Path_188" data-name="Path 188" class="cls-17" d="M0,478.828H0a2.139,2.139,0,0,1,2.139-2.139H121.9a2.139,2.139,0,0,1,2.139,2.139h0a2.139,2.139,0,0,1-2.139,2.139H2.139A2.139,2.139,0,0,1,0,478.828Z" transform="translate(0 -361.207)"/>
        </g>
        <circle id="Ellipse_61" data-name="Ellipse 61" class="cls-21" cx="4.277" cy="4.277" r="4.277" transform="translate(14.97 87.681)"/>
        <g id="Group_379" data-name="Group 379" transform="translate(27.801 47.048)">
          <circle id="Ellipse_62" data-name="Ellipse 62" class="cls-27" cx="4.277" cy="4.277" r="4.277" transform="translate(0 17.109)"/>
          <circle id="Ellipse_63" data-name="Ellipse 63" class="cls-27" cx="4.277" cy="4.277" r="4.277" transform="translate(12.831)"/>
          <circle id="Ellipse_64" data-name="Ellipse 64" class="cls-27" cx="4.277" cy="4.277" r="4.277" transform="translate(38.494 38.494)"/>
          <circle id="Ellipse_65" data-name="Ellipse 65" class="cls-27" cx="4.277" cy="4.277" r="4.277" transform="translate(76.988 51.325)"/>
        </g>
        <g id="Group_380" data-name="Group 380" transform="translate(53.464 4.277)">
          <circle id="Ellipse_66" data-name="Ellipse 66" class="cls-21" cx="4.277" cy="4.277" r="4.277" transform="translate(0 89.819)"/>
          <circle id="Ellipse_67" data-name="Ellipse 67" class="cls-21" cx="4.277" cy="4.277" r="4.277" transform="translate(25.663 70.573)"/>
          <circle id="Ellipse_68" data-name="Ellipse 68" class="cls-21" cx="4.277" cy="4.277" r="4.277" transform="translate(38.494)"/>
        </g>
      </g>
    </g>
  </g>
</svg>